<svg xmlns="http://www.w3.org/2000/svg" width="128" height="128" viewBox="0 0 128 128">
  <g id="Group_1762" data-name="Group 1762" transform="translate(-117 -6180)">
    <g id="Ellipse_6" data-name="Ellipse 6" transform="translate(117 6180)" fill="none" stroke="#99dcf7" stroke-width="3">
      <circle cx="64" cy="64" r="64" stroke="none"/>
      <circle cx="64" cy="64" r="62.5" fill="none"/>
    </g>
    <path id="Icon_awesome-hand-holding-heart" data-name="Icon awesome-hand-holding-heart" d="M40.177,36.559a2.542,2.542,0,0,0,3.721,0L59.791,19.893a12.1,12.1,0,0,0-.817-17.338c-4.495-3.9-11.194-3.2-15.309,1.124L42.03,5.387,40.41,3.694C36.295-.641,29.6-1.341,25.1,2.556a12.11,12.11,0,0,0-.817,17.338ZM82.5,47.884a4.831,4.831,0,0,0-6.217,0L62.8,58.669a9.291,9.291,0,0,1-5.838,2.043H39.7a2.335,2.335,0,1,1,0-4.67H51.122a4.859,4.859,0,0,0,4.86-3.882A4.675,4.675,0,0,0,51.37,46.7H28.02A17.176,17.176,0,0,0,17.206,50.54l-6.786,5.5H2.335A2.342,2.342,0,0,0,0,58.377v14.01a2.342,2.342,0,0,0,2.335,2.335H54.406a9.351,9.351,0,0,0,5.838-2.043L82.31,55.021A4.668,4.668,0,0,0,82.5,47.884Z" transform="translate(139 6207.001)" fill="#99dcf7"/>
  </g>
</svg>
